<?xml version="1.0" standalone="no"?>
<!DOCTYPE svg PUBLIC "-//W3C//DTD SVG 20010904//EN"
 "http://www.w3.org/TR/2001/REC-SVG-20010904/DTD/svg10.dtd">
<svg version="1.0" xmlns="http://www.w3.org/2000/svg"
 width="53.000000pt" height="44.000000pt" viewBox="0 0 53.000000 44.000000"
 preserveAspectRatio="xMidYMid meet">

<g transform="translate(0.000000,44.000000) scale(0.100000,-0.100000)"
fill="#000000" stroke="none">
<path d="M145 400 c4 -6 -6 -10 -22 -11 -15 0 -50 -9 -78 -19 l-50 -19 75 5
75 6 -31 -20 c-18 -11 -35 -26 -40 -33 -4 -7 6 -3 23 9 39 28 92 28 126 2 26
-21 47 -26 47 -12 0 5 11 14 25 20 75 34 142 -8 155 -98 6 -46 8 -49 9 -18 1
48 -13 83 -46 115 l-28 26 58 -6 c31 -3 55 -2 52 2 -6 11 -86 31 -119 31 -13
0 -27 6 -30 13 -3 7 -21 -6 -49 -36 l-44 -48 -42 50 c-24 28 -49 51 -58 51 -8
0 -11 -4 -8 -10z m43 -22 c22 -22 13 -25 -45 -14 l-58 11 40 6 c22 3 42 7 46
8 3 0 10 -4 17 -11z m199 -8 c52 0 37 -6 -30 -13 -51 -5 -57 -4 -46 9 7 8 19
12 26 9 8 -3 31 -5 50 -5z"/>
<path d="M184 225 c-14 -37 26 -69 53 -42 22 22 8 57 -23 57 -14 0 -27 -7 -30
-15z"/>
<path d="M263 224 c-8 -22 10 -49 32 -49 22 0 40 27 32 49 -8 21 -56 21 -64 0z"/>
<path d="M41 214 c0 -11 3 -14 6 -6 3 7 2 16 -1 19 -3 4 -6 -2 -5 -13z"/>
<path d="M50 176 c0 -5 9 -23 20 -41 25 -40 68 -59 115 -51 28 6 37 3 47 -14
16 -25 34 -26 47 -1 9 15 18 18 55 14 42 -5 48 -3 81 30 19 19 35 41 35 47 0
7 -10 -2 -23 -21 -36 -53 -137 -68 -137 -19 0 13 -9 22 -25 26 -27 7 -55 -9
-55 -31 0 -7 -7 -16 -16 -19 -46 -18 -92 4 -125 58 -10 17 -19 27 -19 22z
m218 -60 c2 -9 1 -25 -3 -34 -6 -15 -9 -14 -26 7 -15 18 -17 27 -8 38 15 17
33 12 37 -11z"/>
</g>
</svg>
